<svg width="14" height="16" viewBox="0 0 14 16" fill="none" xmlns="http://www.w3.org/2000/svg">
<path fill-rule="evenodd" clip-rule="evenodd" d="M12.322 7.52661C12.4107 7.6131 12.5037 7.70371 12.6 7.8C13.3 8.4 14 9 14 10C14 11.7362 11.9479 12.4727 9.99218 12.7818C9.97659 12.7842 9.96101 12.7867 9.94543 12.7891C8.76367 12.9719 7.62344 13 7 13C6.36834 13 5.20618 12.9711 4.00781 12.7818C2.05211 12.4727 0 11.7362 0 10C0 9 0.7 8.4 1.4 7.8C1.49629 7.70371 1.58926 7.6131 1.67802 7.52661C2.2345 6.98428 2.625 6.60371 2.625 6V5C2.625 2.2 4.55 0 7 0C9.45 0 11.375 2.2 11.375 5V6C11.375 6.60371 11.7655 6.98428 12.322 7.52661ZM7 16C5.6231 16 4.46285 15.0724 4.11007 13.808C5.29526 13.9755 6.3987 14 7 14C7.60129 14 8.70473 13.9755 9.88992 13.808C9.53714 15.0724 8.37689 16 7 16Z" fill="#737A8E"/>
</svg>
