<svg width="17" height="16" viewBox="0 0 17 16" fill="none" xmlns="http://www.w3.org/2000/svg">
<g clip-path="url(#clip0_10_563)">
<path d="M8.88757 0L0.887573 4.08V5.8L8.88757 1.76L16.8876 5.8V4.08L8.88757 0ZM2.24757 7.56H4.16757V11.48H5.52757V6.32H0.887573V11.48H2.24757V7.56ZM6.16757 6.32V11.48H8.24757L9.96757 7.4V11.48H11.3276V6.32H9.28757L7.52757 10.44V6.32H6.16757ZM11.9676 6.32V11.48H13.3276V9.84L13.7276 9.44L15.2876 11.48H16.8876L14.6476 8.52L16.8876 6.32H15.1276L13.3276 8.24V6.32H11.9676Z" fill="#0A055F"/>
<path d="M14.608 13.3599L14.288 14.2399H14.888L14.608 13.3599Z" fill="#FF4114"/>
<path d="M0.887573 16.0001H16.8876V12.1201H0.887573V16.0001ZM14.2476 12.9601H14.9676L15.7676 15.1601H15.2076L15.0476 14.7201H14.1276L13.9676 15.1601H13.4076L14.2476 12.9601ZM11.0876 12.9601H13.0876V15.1601H12.5676V13.4401H11.6076V15.1601H11.0876V12.9601ZM8.64757 12.9601H10.6476V15.1601H10.1276V13.4401H9.16757V15.1601H8.64757V12.9601ZM6.76757 12.9601L7.28757 13.9201L7.80757 12.9601H8.36757L7.12757 15.1601H6.56757L7.00757 14.4001L6.12757 12.9601H6.76757ZM4.24757 12.9601H5.36757C5.80757 12.9601 6.12757 13.2001 6.12757 13.6801C6.12757 14.1601 5.76757 14.4001 5.36757 14.4001H4.76757V15.1601H4.24757V12.9601ZM2.24757 12.9601H3.92757V13.4401H2.76757V15.1601H2.24757V12.9601Z" fill="#FF4114"/>
<path d="M5.64843 13.6799C5.64843 13.4799 5.52843 13.3999 5.32843 13.3999H4.76843V13.9599H5.32843C5.48843 13.9599 5.64843 13.8799 5.64843 13.6799Z" fill="#FF4114"/>
</g>
<defs>
<clipPath id="clip0_10_563">
<rect width="16" height="16" fill="white" transform="translate(0.887573)"/>
</clipPath>
</defs>
</svg>
