              <svg className='header__up-profileSvg' width="16" height="16" viewBox="0 0 16 16" fill="none" xmlns="http://www.w3.org/2000/svg">
                <path d="M7.99999 0.800049C6.23519 0.800049 4.79999 2.23525 4.79999 4.00005V4.80005C4.79999 6.56485 6.23519 8.00005 7.99999 8.00005C9.76479 8.00005 11.2 6.56485 11.2 4.80005V4.00005C11.2 2.23525 9.76479 0.800049 7.99999 0.800049ZM11.2288 8.34085C10.3482 9.15011 9.19597 9.59946 7.99999 9.60005C6.75599 9.60005 5.62479 9.12005 4.77119 8.34085C3.36239 8.80005 2.39999 9.84885 2.39999 11.2V13.6C4.26639 14.1336 6.13359 14.4 7.99999 14.4C9.86639 14.4 11.7336 14.1336 13.6 13.6V11.2C13.6 9.84885 12.6376 8.80005 11.2288 8.34085Z" fill="#737A8E" />
              </svg>
